<svg width="260.1887451171875px" height="122px" xmlns="http://www.w3.org/2000/svg" viewBox="119.90562744140624 14 260.1887451171875 122" style="background: rgba(0, 0, 0, 0);" preserveAspectRatio="xMidYMid"><defs><linearGradient id="editing-sticker-gradient" x1="0.5" y1="0.2" x2="0.5" y2="0.8"><stop offset="0" stop-color="#fd9"></stop><stop offset="1" stop-color="#9df"></stop></linearGradient><filter id="editing-sticker" x="-100%" y="-100%" width="300%" height="300%"><feMorphology operator="erode" radius="1" in="SourceAlpha" result="alpha-erode"></feMorphology><feConvolveMatrix order="3,3" divisor="1" kernelMatrix="0 1 0 1 1 1 0 1 0" in="alpha-erode" result="alpha-round"></feConvolveMatrix><feMorphology operator="dilate" radius="3.5" in="alpha-round" result="dilate-shadow"></feMorphology><feGaussianBlur in="dilate-shadow" stdDeviation="1.5" result="shadow"></feGaussianBlur><feFlood flood-color="#fff" result="flood-sticker"></feFlood><feComposite operator="in" in="flood-sticker" in2="alpha-round" result="comp-sticker"></feComposite><feMorphology operator="dilate" radius="3" in="comp-sticker" result="morph-sticker"></feMorphology><feConvolveMatrix order="3,3" divisor="1" kernelMatrix="0 1 0 1 1 1 0 1 0" in="morph-sticker" result="sticker"></feConvolveMatrix><feMerge><feMergeNode in="shadow"></feMergeNode><feMergeNode in="sticker"></feMergeNode><feMergeNode in="SourceGraphic"></feMergeNode></feMerge></filter></defs><g filter="url(#editing-sticker)"><g transform="translate(161.55656552314758, 103.64000129699707)"><path d="M30.21-41.86L30.21-41.86L30.21-41.86Q30.53-38.85 30.53-37.82L30.53-37.82L30.53-37.82Q30.53-36.80 30.50-35.71L30.50-35.71L30.50-35.71Q30.46-34.62 30.02-33.50L30.02-33.50L30.02-33.50Q29.57-32.38 28.80-31.36L28.80-31.36L28.80-31.36Q27.33-29.38 23.49-29.38L23.49-29.38L23.49-29.38Q20.86-29.38 19.23-30.62L19.23-30.62L19.23-30.62Q17.60-31.87 16.13-34.24L16.13-34.24L16.13-34.24Q14.78-29.57 14.78-23.30L14.78-23.30L14.78-23.30Q14.78-15.62 18.56-12.03L18.56-12.03L18.56-12.03Q20.48-10.18 23.49-10.18L23.49-10.18L23.49-10.18Q26.50-10.18 30.34-11.71L30.34-11.71L30.34-11.71Q30.78-9.86 30.40-7.90L30.40-7.90L30.40-7.90Q30.02-5.95 29.18-4.61L29.18-4.61L29.18-4.61Q28.35-3.26 27.07-2.30L27.07-2.30L27.07-2.30Q24 0 18.18 0L18.18 0L18.18 0Q9.22 0 4.86-6.02L4.86-6.02L4.86-6.02Q3.26-8.26 2.24-11.94L2.24-11.94L2.24-11.94Q1.22-15.62 1.22-20.35L1.22-20.35L1.22-20.35Q1.22-28.61 4.45-33.86L4.45-33.86L4.45-33.86Q7.68-39.10 12.35-41.41L12.35-41.41L12.35-41.41Q12.99-42.82 14.50-44.10L14.50-44.10L14.50-44.10Q16-45.38 18.59-45.38L18.59-45.38L18.59-45.38Q21.18-45.38 24.51-43.62L24.51-43.62L24.51-43.62Q27.84-41.86 30.21-41.86ZM58.43-18.56L58.43-18.56L58.43-18.56Q58.43-9.54 54.46-4.77L54.46-4.77L54.46-4.77Q50.50 0 44.54 0L44.54 0L44.54 0Q40.38 0 37.06-2.94L37.06-2.94L37.06-2.94Q35.26-4.48 34.18-7.58L34.18-7.58L34.18-7.58Q33.09-10.69 33.09-14.98L33.09-14.98L33.09-14.98Q33.09-21.44 35.52-24.86L35.52-24.86L35.52-24.86Q37.95-28.29 40.77-28.99L40.77-28.99L40.77-28.99Q41.79-32.13 45.06-33.41L45.06-33.41L45.06-33.41Q46.53-33.92 48.32-33.92L48.32-33.92L48.32-33.92Q58.43-33.92 58.43-18.56ZM42.24-17.41L42.24-17.41L42.24-17.41Q42.24-7.68 45.70-7.68L45.70-7.68L45.70-7.68Q48.77-7.68 48.77-16.83L48.77-16.83L48.77-16.83Q48.77-21.31 47.33-23.14L47.33-23.14L47.33-23.14Q45.89-24.96 43.33-24.96L43.33-24.96L43.33-24.96Q42.24-22.91 42.24-17.41ZM82.05-8.90L82.05-8.90L82.05-8.90Q82.75-8.19 82.75-7.04L82.75-7.04L82.75-7.04Q82.75-5.89 82.30-4.77L82.30-4.77L82.30-4.77Q81.86-3.65 80.86-2.56L80.86-2.56L80.86-2.56Q79.87-1.47 77.98-0.74L77.98-0.74L77.98-0.74Q76.10 0 73.70 0L73.70 0L73.70 0Q71.30 0 69.25-0.74L69.25-0.74L69.25-0.74Q67.20-1.47 65.34-3.07L65.34-3.07L65.34-3.07Q61.31-6.66 61.31-14.82L61.31-14.82L61.31-14.82Q61.31-22.98 64.10-26.91L64.10-26.91L64.10-26.91Q66.88-30.85 70.40-31.17L70.40-31.17L70.40-31.17Q73.28-33.92 76.48-33.92L76.48-33.92L76.48-33.92Q78.66-33.92 80.77-32.19L80.77-32.19L80.77-32.19Q82.88-30.46 82.88-28.22L82.88-28.22L82.88-28.22Q82.88-25.98 81.31-23.94L81.31-23.94L81.31-23.94Q79.74-21.89 77.25-21.06L77.25-21.06L77.25-21.06Q74.43-24.06 70.98-25.54L70.98-25.54L70.98-19.52L70.98-19.52Q70.98-13.44 73.86-10.75L73.86-10.75L73.86-10.75Q76.03-8.70 79.74-8.70L79.74-8.70L79.74-8.70Q80.83-8.70 82.05-8.90ZM96.19-13.31L96.19-7.55L96.19-7.55Q96.19-4.42 96.96-2.88L96.96-2.88L96.96-2.88Q96.58-1.86 94.82-0.93L94.82-0.93L94.82-0.93Q93.06 0 90.91 0L90.91 0L90.91 0Q88.77 0 87.58-1.31L87.58-1.31L87.58-1.31Q86.40-2.62 86.40-4.86L86.40-4.86L86.40-31.87L86.40-31.87Q86.40-37.38 85.31-40.70L85.31-40.70L84.93-41.92L84.93-41.92Q85.18-42.24 85.66-42.75L85.66-42.75L85.66-42.75Q86.14-43.26 87.78-44.13L87.78-44.13L87.78-44.13Q89.41-44.99 91.14-44.99L91.14-44.99L91.14-44.99Q96.19-44.99 96.19-36.99L96.19-36.99L96.19-17.02L96.19-17.02Q97.54-17.92 98.94-18.18L98.94-18.18L98.94-18.18Q100.74-23.68 102.21-33.02L102.21-33.02L102.21-33.02Q104.06-33.86 107.26-33.86L107.26-33.86L107.26-33.86Q111.62-33.86 111.62-29.31L111.62-29.31L111.62-29.31Q111.62-26.88 109.76-22.46L109.76-22.46L109.76-22.46Q107.90-18.05 105.15-15.55L105.15-15.55L108.99-9.60L108.99-9.60Q110.85-6.91 111.81-5.63L111.81-5.63L112.83-4.29L112.83-4.29Q111.87-1.47 109.12-0.45L109.12-0.45L109.12-0.45Q107.97 0 106.56 0L106.56 0L106.56 0Q103.17 0 101.57-3.14L101.57-3.14L96.19-13.31ZM124.54 0L124.54 6.98L124.54 6.98Q122.50 8.38 119.74 8.38L119.74 8.38L119.74 8.38Q116.99 8.38 115.87 7.30L115.87 7.30L115.87 7.30Q114.75 6.21 114.75 3.78L114.75 3.78L114.75-26.75L113.34-31.17L113.34-31.17Q113.60-31.49 114.08-32L114.08-32L114.08-32Q114.56-32.51 116.16-33.34L116.16-33.34L116.16-33.34Q117.76-34.18 119.49-34.18L119.49-34.18L119.49-34.18Q122.82-34.18 123.97-30.53L123.97-30.53L123.97-30.53Q127.36-33.92 131.55-33.92L131.55-33.92L131.55-33.92Q135.74-33.92 138.02-31.33L138.02-31.33L138.02-31.33Q140.29-28.74 140.29-24.45L140.29-24.45L140.29-16.13L140.29-16.13Q140.29-10.24 135.68-5.12L135.68-5.12L135.68-5.12Q131.07 0 125.44 0L125.44 0L124.54 0ZM124.54-25.28L124.54-8.19L124.54-8.19Q125.50-7.42 127.04-7.42L127.04-7.42L127.04-7.42Q128.58-7.42 129.54-8.38L129.54-8.38L129.54-8.38Q130.50-9.34 130.50-11.07L130.50-11.07L130.50-20.35L130.50-20.35Q130.50-23.74 128.83-24.96L128.83-24.96L128.83-24.96Q127.81-25.60 126.72-25.60L126.72-25.60L126.72-25.60Q125.63-25.60 124.54-25.28L124.54-25.28ZM149.31 0L149.31 0L149.31 0Q144.06 0 144.06-7.55L144.06-7.55L144.06-7.55Q144.06-26.75 144.51-32.83L144.51-32.83L144.51-32.83Q145.86-34.18 148.80-34.18L148.80-34.18L148.80-34.18Q153.86-34.18 153.86-26.18L153.86-26.18L153.86-7.17L155.26-3.90L155.26-3.90Q155.01-3.46 154.56-2.82L154.56-2.82L154.56-2.82Q154.11-2.18 152.58-1.09L152.58-1.09L152.58-1.09Q151.04 0 149.31 0ZM154.11-43.23L154.11-43.23L154.11-43.23Q154.11-40.58 152.83-38.88L152.83-38.88L152.83-38.88Q151.55-37.18 148.96-37.18L148.96-37.18L148.96-37.18Q146.37-37.18 145.12-39.07L145.12-39.07L145.12-39.07Q143.87-40.96 143.04-44.86L143.04-44.86L143.04-44.86Q143.30-45.31 143.74-45.98L143.74-45.98L143.74-45.98Q144.19-46.66 145.70-47.78L145.70-47.78L145.70-47.78Q147.20-48.90 148.80-48.90L148.80-48.90L148.80-48.90Q151.74-48.90 152.93-47.39L152.93-47.39L152.93-47.39Q154.11-45.89 154.11-43.23ZM175.23-32.51L175.23-32.51L175.23-32.51Q175.87-30.91 175.87-29.15L175.87-29.15L175.87-29.15Q175.87-27.39 175.78-26.59L175.78-26.59L175.78-26.59Q175.68-25.79 174.98-24.86L174.98-24.86L174.98-24.86Q174.27-23.94 173.12-23.94L173.12-23.94L173.12-23.94Q171.97-23.94 169.79-24.06L169.79-24.06L169.79-14.66L169.79-14.66Q169.79-8.38 175.23-6.34L175.23-6.34L175.23-6.34Q175.23-3.97 173.60-1.98L173.60-1.98L173.60-1.98Q171.97 0 169.15 0L169.15 0L169.15 0Q165.06 0 162.56-3.01L162.56-3.01L162.56-3.01Q160.06-6.02 160.06-10.82L160.06-10.82L160.06-24.77L160.06-24.77Q158.40-25.22 157.06-25.86L157.06-25.86L156.99-26.62L156.99-26.62Q156.99-30.98 160-32.45L160-32.45L160-32.45Q159.74-36.86 158.91-39.42L158.91-39.42L158.66-40.32L158.66-40.32Q158.91-40.64 159.39-41.15L159.39-41.15L159.39-41.15Q159.87-41.66 161.47-42.50L161.47-42.50L161.47-42.50Q163.07-43.33 164.80-43.33L164.80-43.33L164.80-43.33Q169.79-43.33 169.79-35.33L169.79-35.33L169.79-32.70L169.79-32.70Q171.84-32.51 175.23-32.51Z" fill="url(#editing-sticker-gradient)" stroke="#000" stroke-width="2.5"></path></g></g><style>text {
  font-size: 64px;
  font-family: Arial Black;
  dominant-baseline: central;
  text-anchor: middle;
}</style></svg>